<svg width="88" height="61" viewBox="0 0 88 61" fill="none" xmlns="http://www.w3.org/2000/svg">
<g id="Stacks Logo">
<g id="Group">
<path id="Vector" d="M49.0488 16.3478H23.4647C22.192 16.3478 20.9715 16.8304 20.0715 17.6894C19.1716 18.5485 18.666 19.7135 18.666 20.9284V54.5109C18.666 55.7257 19.1716 56.8908 20.0715 57.7498C20.9715 58.6089 22.192 59.0915 23.4647 59.0915H49.0486C49.6788 59.0915 50.3028 58.973 50.885 58.7428C51.4673 58.5126 51.9963 58.1752 52.4419 57.7499C52.8875 57.3245 53.241 56.8196 53.4822 56.2638C53.7234 55.7081 53.8475 55.1124 53.8475 54.5109V20.9284C53.8475 20.3269 53.7234 19.7312 53.4822 19.1754C53.241 18.6197 52.8875 18.1147 52.4419 17.6894C51.9963 17.264 51.4673 16.9266 50.885 16.6964C50.3028 16.4662 49.6789 16.3478 49.0488 16.3478ZM57.049 8.718H31.4507C30.178 8.718 28.9574 9.2006 28.0575 10.0596C27.1576 10.9187 26.652 12.0838 26.652 13.2986H52.2578C53.5292 13.2986 54.7487 13.7803 55.6484 14.6378C56.5482 15.4954 57.0546 16.6587 57.0565 17.8724V51.4685C57.6867 51.4685 58.3107 51.3501 58.8929 51.1199C59.4752 50.8897 60.0042 50.5523 60.4498 50.1269C60.8954 49.7016 61.2489 49.1966 61.4901 48.6409C61.7312 48.0851 61.8554 47.4894 61.8554 46.8879V13.2846C61.8534 12.071 61.347 10.9076 60.4472 10.0501C59.5475 9.1926 58.328 8.71097 57.0565 8.71101M65.0424 1.08122H39.4583C38.1856 1.08122 36.965 1.56382 36.0651 2.42285C35.1651 3.28188 34.6596 4.44698 34.6596 5.66183H60.2434C60.8736 5.66181 61.4976 5.78028 62.0798 6.01047C62.6621 6.24066 63.1911 6.57806 63.6367 7.00341C64.0823 7.42876 64.4358 7.93373 64.677 8.48948C64.9182 9.04524 65.0423 9.6409 65.0423 10.2424V43.8249C65.6725 43.8249 66.2965 43.7064 66.8787 43.4762C67.4609 43.246 67.99 42.9086 68.4356 42.4832C68.8812 42.0579 69.2346 41.5529 69.4758 40.9971C69.7169 40.4414 69.8411 39.8457 69.841 39.2441V5.66183C69.841 4.44698 69.3355 3.28188 68.4355 2.42285C67.5356 1.56382 66.3152 1.08122 65.0424 1.08122Z" fill="#FF9D9D"/>
<path id="Vector_2" d="M86.8076 24H2V45.7363H86.8076V24Z" fill="white"/>
<path id="Vector_3" d="M18.8084 30.3478L17.4832 32.9765C17.0699 32.7458 16.6166 32.5321 16.123 32.3353C15.6295 32.1386 15.1508 31.9796 14.6867 31.8584C14.2216 31.7382 13.817 31.6781 13.4727 31.6781C13.1742 31.6781 12.9335 31.7329 12.7508 31.8424C12.567 31.952 12.4751 32.1216 12.4751 32.3513C12.4751 32.6033 12.5868 32.8088 12.8102 32.9678C13.0336 33.1267 13.3346 33.261 13.7134 33.3705C14.0922 33.48 14.5054 33.5925 14.9533 33.7078C15.4011 33.8222 15.8484 33.9642 16.2952 34.1338C16.743 34.3044 17.1532 34.5181 17.5259 34.775C17.8996 35.0328 18.2011 35.3668 18.4306 35.7768C18.6601 36.1877 18.7749 36.6947 18.7749 37.2976C18.7749 38.1292 18.5479 38.8165 18.094 39.3593C17.6411 39.9011 17.039 40.3062 16.2875 40.5747C15.5361 40.8432 14.707 40.9775 13.8002 40.9775C13.1117 40.9775 12.4177 40.9009 11.718 40.7478C11.0174 40.5936 10.3487 40.3799 9.71204 40.1066C9.07535 39.8323 8.50468 39.4984 8 39.1048L9.34191 36.5081C9.75519 36.8483 10.2345 37.1522 10.7798 37.4197C11.3241 37.6882 11.8688 37.9019 12.4141 38.0609C12.9594 38.2199 13.4326 38.2993 13.8337 38.2993C14.2247 38.2993 14.5288 38.231 14.7461 38.0943C14.9644 37.9567 15.0736 37.7512 15.0736 37.4779C15.0736 37.2259 14.9588 37.0204 14.7293 36.8614C14.4999 36.7024 14.1988 36.5682 13.8261 36.4587C13.4534 36.3491 13.0402 36.2396 12.5862 36.1301C12.1334 36.0205 11.6861 35.8868 11.2443 35.7288C10.8026 35.5698 10.3924 35.3643 10.0136 35.1123C9.63486 34.8603 9.33378 34.5371 9.11038 34.1426C8.88597 33.7481 8.77377 33.2552 8.77377 32.6639C8.77377 31.9195 8.98041 31.2706 9.3937 30.7171C9.80699 30.1636 10.3863 29.7391 11.1316 29.4434C11.878 29.1478 12.7558 29 13.7652 29C14.6831 29 15.5899 29.1231 16.4856 29.3693C17.3802 29.6165 18.1544 29.9426 18.8084 30.3478ZM19.1694 31.9907V29.2632H29.7721V31.9907H26.2612V40.7797H22.6635V31.9907H19.1694ZM29.7386 40.7797L34.8839 29.2632H38.5684L43.5415 40.7797H39.7215L36.6233 32.6799L33.4216 40.7797H29.7386ZM33.0256 38.9405V36.4427H39.9956V38.9405H33.0256ZM55.2105 31.1024L53.1451 33.4505C52.7663 32.9687 52.3185 32.5883 51.8017 32.3091C51.2858 32.03 50.7756 31.8904 50.2709 31.8904C49.8688 31.8904 49.4926 31.967 49.1422 32.1201C48.7929 32.2733 48.4863 32.487 48.2222 32.7613C47.9582 33.0347 47.7546 33.3579 47.6114 33.7311C47.4673 34.1033 47.3952 34.5085 47.3952 34.9466C47.3952 35.3847 47.4673 35.7928 47.6114 36.1708C47.7546 36.5478 47.9582 36.8735 48.2222 37.1478C48.4863 37.4212 48.7929 37.6349 49.1422 37.789C49.4926 37.9422 49.8688 38.0187 50.2709 38.0187C50.741 38.0187 51.2371 37.8956 51.759 37.6494C52.281 37.4023 52.743 37.0761 53.1451 36.6709L55.2105 38.7748C54.7739 39.2236 54.2748 39.6176 53.7132 39.9568C53.1507 40.297 52.5597 40.5573 51.9403 40.7376C51.3198 40.9179 50.706 41.008 50.0988 41.008C49.1686 41.008 48.3192 40.8578 47.5505 40.5573C46.7818 40.2558 46.1106 39.8366 45.5369 39.2996C44.9632 38.7636 44.5184 38.1258 44.2026 37.3863C43.8878 36.6467 43.7304 35.8441 43.7304 34.9786C43.7304 34.1246 43.8909 33.339 44.2117 32.6217C44.5326 31.9045 44.9886 31.2773 45.5795 30.7404C46.1705 30.2034 46.859 29.7871 47.645 29.4914C48.4309 29.1958 49.289 29.048 50.2191 29.048C50.8385 29.048 51.4524 29.1328 52.0606 29.3024C52.6689 29.472 53.2451 29.7105 53.7894 30.0178C54.3347 30.324 54.8084 30.6856 55.2105 31.1024ZM56.2965 40.7797V29.2632H59.876V33.8794L63.92 29.2632H68.0508L59.876 37.9548V40.7797H56.2965ZM61.029 36.2624L63.4219 33.5842L68.3265 40.7797H64.0418L61.029 36.2624ZM79.3923 30.3478L78.0671 32.9765C77.6539 32.7458 77.2005 32.5321 76.707 32.3353C76.2135 32.1386 75.7347 31.9796 75.2706 31.8584C74.8055 31.7382 74.4009 31.6781 74.0566 31.6781C73.7581 31.6781 73.5174 31.7329 73.3347 31.8424C73.1509 31.952 73.059 32.1216 73.059 32.3513C73.059 32.6033 73.1707 32.8088 73.3941 32.9678C73.6175 33.1267 73.9185 33.261 74.2973 33.3705C74.6761 33.48 75.0894 33.5925 75.5372 33.7078C75.985 33.8222 76.4323 33.9642 76.8791 34.1338C77.3269 34.3044 77.7371 34.5181 78.1098 34.775C78.4835 35.0328 78.7851 35.3668 79.0145 35.7768C79.244 36.1877 79.3588 36.6947 79.3588 37.2976C79.3588 38.1292 79.1318 38.8165 78.6779 39.3593C78.2251 39.9011 77.6229 40.3062 76.8715 40.5747C76.12 40.8432 75.2909 40.9775 74.3841 40.9775C73.6957 40.9775 73.0016 40.9009 72.302 40.7478C71.6013 40.5936 70.9326 40.3799 70.296 40.1066C69.6593 39.8323 69.0886 39.4984 68.5839 39.1048L69.9258 36.5081C70.3391 36.8483 70.8184 37.1522 71.3637 37.4197C71.908 37.6882 72.4528 37.9019 72.998 38.0609C73.5433 38.2199 74.0165 38.2993 74.4176 38.2993C74.8086 38.2993 75.1127 38.231 75.33 38.0943C75.5483 37.9567 75.6575 37.7512 75.6575 37.4779C75.6575 37.2259 75.5427 37.0204 75.3133 36.8614C75.0838 36.7024 74.7827 36.5682 74.41 36.4587C74.0374 36.3491 73.6241 36.2396 73.1702 36.1301C72.7173 36.0205 72.27 35.8868 71.8283 35.7288C71.3865 35.5698 70.9763 35.3643 70.5975 35.1123C70.2188 34.8603 69.9177 34.5371 69.6943 34.1426C69.4699 33.7481 69.3577 33.2552 69.3577 32.6639C69.3577 31.9195 69.5643 31.2706 69.9776 30.7171C70.3909 30.1636 70.9702 29.7391 71.7155 29.4434C72.4619 29.1478 73.3397 29 74.3491 29C75.2671 29 76.1739 29.1231 77.0695 29.3693C77.9641 29.6165 78.7384 29.9426 79.3923 30.3478Z" fill="#F34A4A"/>
</g>
</g>
</svg>
